<svg width="20" height="20" viewBox="0 0 20 20" fill="none" xmlns="http://www.w3.org/2000/svg">
<path d="M3.33398 7.49935C3.33398 7.27834 3.42178 7.06637 3.57806 6.91009C3.73434 6.75381 3.9463 6.66602 4.16732 6.66602H7.50065C7.72166 6.66602 7.93363 6.75381 8.08991 6.91009C8.24619 7.06637 8.33398 7.27834 8.33398 7.49935C8.33398 7.72036 8.24619 7.93232 8.08991 8.0886C7.93363 8.24488 7.72166 8.33268 7.50065 8.33268H4.16732C3.9463 8.33268 3.73434 8.24488 3.57806 8.0886C3.42178 7.93232 3.33398 7.72036 3.33398 7.49935Z" fill="white"/>
<path fill-rule="evenodd" clip-rule="evenodd" d="M3.33333 2.5C2.44928 2.5 1.60143 2.85119 0.976311 3.47631C0.35119 4.10143 0 4.94928 0 5.83333L0 14.1667C0 15.0507 0.35119 15.8986 0.976311 16.5237C1.60143 17.1488 2.44928 17.5 3.33333 17.5H16.6667C17.5507 17.5 18.3986 17.1488 19.0237 16.5237C19.6488 15.8986 20 15.0507 20 14.1667V5.83333C20 4.94928 19.6488 4.10143 19.0237 3.47631C18.3986 2.85119 17.5507 2.5 16.6667 2.5H3.33333ZM16.6667 4.16667H3.33333C2.89131 4.16667 2.46738 4.34226 2.15482 4.65482C1.84226 4.96738 1.66667 5.39131 1.66667 5.83333V11.6667H18.3333V5.83333C18.3333 5.39131 18.1577 4.96738 17.8452 4.65482C17.5326 4.34226 17.1087 4.16667 16.6667 4.16667ZM18.3333 13.3333H1.66667V14.1667C1.66667 14.6087 1.84226 15.0326 2.15482 15.3452C2.46738 15.6577 2.89131 15.8333 3.33333 15.8333H16.6667C17.1087 15.8333 17.5326 15.6577 17.8452 15.3452C18.1577 15.0326 18.3333 14.6087 18.3333 14.1667V13.3333Z" fill="white"/>
</svg>
