<svg width="14" height="18" viewBox="0 0 14 18" fill="none" xmlns="http://www.w3.org/2000/svg">
<path d="M7 13.5C6.49719 13.5001 6.01279 13.3108 5.64327 12.9698C5.27375 12.6289 5.04622 12.1612 5.006 11.66C3.67219 11.1879 2.54805 10.2597 1.83202 9.03936C1.116 7.81901 0.854122 6.38493 1.09263 4.99027C1.33113 3.59561 2.05467 2.33005 3.13554 1.41698C4.21641 0.503917 5.5851 0.00206045 7 6.3094e-08C8.50489 -0.000218052 9.95492 0.565087 11.0626 1.58383C12.1702 2.60256 12.8546 4.00034 12.98 5.5C12.9842 5.56505 12.9748 5.63026 12.9524 5.69148C12.93 5.7527 12.8952 5.8086 12.85 5.85562C12.8049 5.90264 12.7504 5.93976 12.6902 5.96461C12.6299 5.98947 12.5652 6.00152 12.5 6C12.3661 5.99664 12.2381 5.94361 12.1411 5.8512C12.0441 5.7588 11.9849 5.63362 11.975 5.5C11.8859 4.61584 11.5628 3.77138 11.039 3.05357C10.5151 2.33576 9.80942 1.77054 8.99453 1.41609C8.17964 1.06163 7.28501 0.930763 6.40274 1.03694C5.52046 1.14313 4.68243 1.48252 3.97491 2.0202C3.26739 2.55787 2.71594 3.2744 2.37735 4.096C2.03876 4.9176 1.92525 5.8146 2.04851 6.69465C2.17177 7.5747 2.52734 8.406 3.07863 9.10297C3.62991 9.79994 4.35699 10.3374 5.185 10.66C5.33566 10.3345 5.57111 10.0554 5.86667 9.85213C6.16224 9.64885 6.50703 9.5288 6.86493 9.50457C7.22283 9.48033 7.58067 9.55281 7.90094 9.71439C8.2212 9.87597 8.49212 10.1207 8.68529 10.423C8.87846 10.7253 8.98679 11.0739 8.99891 11.4324C9.01103 11.7909 8.9265 12.1461 8.75418 12.4607C8.58186 12.7754 8.32809 13.0379 8.01947 13.2207C7.71084 13.4035 7.35872 13.5 7 13.5ZM2.009 11H2.1C2.49 11.381 2.923 11.717 3.392 12H2.009C1.448 12 1 12.447 1 13C1 14.309 1.622 15.284 2.673 15.953C3.743 16.636 5.265 17 7 17C8.735 17 10.257 16.636 11.327 15.953C12.377 15.283 13 14.31 13 13C13 12.7348 12.8946 12.4804 12.7071 12.2929C12.5196 12.1054 12.2652 12 12 12H9.959C10.0149 11.669 10.0149 11.331 9.959 11H12C12.5304 11 13.0391 11.2107 13.4142 11.5858C13.7893 11.9609 14 12.4696 14 13C14 14.691 13.167 15.966 11.865 16.797C10.583 17.614 8.855 18 7 18C5.145 18 3.417 17.614 2.135 16.797C0.833 15.967 0 14.69 0 13C0 11.887 0.903 11 2.009 11ZM11 6C11.0002 6.67664 10.8288 7.34227 10.5017 7.93463C10.1747 8.52698 9.70273 9.02669 9.13 9.387C8.86304 9.11781 8.54747 8.90166 8.2 8.75C8.83168 8.47431 9.34917 7.98953 9.66546 7.37716C9.98174 6.7648 10.0775 6.06221 9.93672 5.38753C9.7959 4.71284 9.42708 4.10722 8.89225 3.6725C8.35742 3.23777 7.68922 3.00045 7 3.00045C6.31078 3.00045 5.64258 3.23777 5.10775 3.6725C4.57293 4.10722 4.2041 4.71284 4.06328 5.38753C3.92247 6.06221 4.01826 6.7648 4.33454 7.37716C4.65083 7.98953 5.16832 8.47431 5.8 8.75C5.45 8.903 5.135 9.12 4.87 9.387C4.11042 8.90932 3.53351 8.19012 3.232 7.345C3.07818 6.91327 2.99971 6.45831 3 6C3 4.93913 3.42143 3.92172 4.17157 3.17157C4.92172 2.42143 5.93913 2 7 2C8.06087 2 9.07828 2.42143 9.82843 3.17157C10.5786 3.92172 11 4.93913 11 6Z" fill="white"/>
</svg>
