<svg width="23" height="23" viewBox="0 0 23 23" fill="none" xmlns="http://www.w3.org/2000/svg">
<path fill-rule="evenodd" clip-rule="evenodd" d="M0 5.48539C0 4.03057 0.577923 2.63534 1.60663 1.60663C2.63534 0.577923 4.03057 0 5.48539 0H11.2938C11.5933 0 11.8806 0.118988 12.0924 0.330787C12.3042 0.542586 12.4232 0.829848 12.4232 1.12938C12.4232 1.42891 12.3042 1.71617 12.0924 1.92797C11.8806 2.13977 11.5933 2.25876 11.2938 2.25876H5.48539C4.62963 2.25876 3.80892 2.5987 3.20381 3.20381C2.5987 3.80892 2.25876 4.62963 2.25876 5.48539V17.1022C2.25876 17.9579 2.5987 18.7786 3.20381 19.3837C3.80892 19.9888 4.62963 20.3288 5.48539 20.3288H17.1022C17.9579 20.3288 18.7786 19.9888 19.3837 19.3837C19.9888 18.7786 20.3288 17.9579 20.3288 17.1022V11.2938C20.3288 10.9942 20.4478 10.707 20.6596 10.4952C20.8714 10.2834 21.1586 10.1644 21.4582 10.1644C21.7577 10.1644 22.045 10.2834 22.2568 10.4952C22.4686 10.707 22.5876 10.9942 22.5876 11.2938V17.1022C22.5876 18.557 22.0096 19.9522 20.9809 20.9809C19.9522 22.0096 18.557 22.5876 17.1022 22.5876H5.48539C4.03057 22.5876 2.63534 22.0096 1.60663 20.9809C0.577923 19.9522 0 18.557 0 17.1022V5.48539Z" fill="white"/>
<path fill-rule="evenodd" clip-rule="evenodd" d="M14.8374 12.6684L12.3472 14.1705L11.1805 12.2358L13.6708 10.7338L13.6742 10.7315C13.7696 10.674 13.8576 10.605 13.9362 10.5259L19.5944 4.8384C19.6511 4.78126 19.7057 4.72212 19.7581 4.66109C20.132 4.22515 20.6854 3.36231 20.0156 2.6892C19.4498 2.11999 18.6389 2.65758 18.1138 3.11949C17.9729 3.24368 17.8373 3.37367 17.7072 3.50913L17.6688 3.54753L12.0897 9.15489C11.9572 9.28657 11.8534 9.44422 11.7847 9.61793L10.8541 11.9591C10.8365 12.0032 10.8332 12.0517 10.8446 12.0977C10.8561 12.1438 10.8818 12.185 10.918 12.2157C10.9543 12.2463 10.9993 12.2647 11.0466 12.2683C11.0939 12.272 11.14 12.2606 11.1805 12.2358L12.3472 14.1705C10.3086 15.3992 7.87483 13.3347 8.75575 11.1234L9.68748 8.78332C9.86889 8.32603 10.1417 7.9106 10.4893 7.56246L16.0673 1.95397L16.1001 1.92122C16.2661 1.75182 16.824 1.18035 17.5005 0.769257C17.8698 0.54677 18.4594 0.252002 19.1878 0.195533C20.0235 0.1289 20.9158 0.392045 21.616 1.09565C22.1519 1.62509 22.489 2.32311 22.5703 3.07206C22.6262 3.65583 22.537 4.24437 22.3105 4.78532C21.983 5.59509 21.4364 6.19027 21.1958 6.43083L15.5377 12.1184C15.3268 12.3299 15.0934 12.5133 14.8374 12.6684ZM19.8666 4.62043C19.8666 4.62043 19.862 4.62382 19.8519 4.62721L19.8666 4.62043Z" fill="white"/>
</svg>
