<svg width="24" height="24" viewBox="0 0 24 24" fill="none" xmlns="http://www.w3.org/2000/svg">
<path d="M11.3745 13.1057C11.5482 13.2555 11.7698 13.3378 11.9991 13.3378C12.2284 13.3378 12.45 13.2555 12.6236 13.1057L23.4787 3.80192C23.1791 3.32123 22.7623 2.92456 22.2674 2.64917C21.7725 2.37377 21.2158 2.22869 20.6494 2.22754H3.34826C2.78203 2.22873 2.2254 2.37377 1.7306 2.64907C1.2358 2.92436 0.819073 3.32088 0.519531 3.80138L11.3745 13.1057Z" fill="#535353"/>
<path d="M14.0444 14.7609C13.4769 15.2529 12.751 15.5237 12 15.5237C11.249 15.5237 10.5231 15.2529 9.95564 14.7609L0 6.22754V17.4232C0.000955817 18.3112 0.354148 19.1626 0.982081 19.7906C1.61001 20.4185 2.4614 20.7717 3.34943 20.7726H20.6506C21.5386 20.7718 22.3901 20.4186 23.018 19.7907C23.646 19.1627 23.9991 18.3113 24 17.4232V6.22754L14.0444 14.7609Z" fill="#535353"/>
</svg>
