<svg width="38" height="38" viewBox="0 0 38 38" fill="none" xmlns="http://www.w3.org/2000/svg">
<path d="M34.8327 19.0007C34.8327 13.0299 34.8327 10.0437 32.977 8.18965C31.1213 6.33557 28.1368 6.33398 22.166 6.33398H15.8327C9.86193 6.33398 6.87577 6.33398 5.02168 8.18965C3.1676 10.0453 3.16602 13.0299 3.16602 19.0007C3.16602 24.9714 3.16602 27.9576 5.02168 29.8117C6.87735 31.6657 9.86193 31.6673 15.8327 31.6673H22.166C28.1368 31.6673 31.1229 31.6673 32.977 29.8117C34.0125 28.7777 34.4701 27.3923 34.6712 25.334M15.8327 25.334H9.49935M22.166 25.334H19.791M3.16602 15.834H11.0827M34.8327 15.834H17.416" stroke="#FF6A00" stroke-width="2.375" stroke-linecap="round"/>
</svg>
