<svg width="24" height="24" viewBox="0 0 24 24" fill="none" xmlns="http://www.w3.org/2000/svg">
<g clip-path="url(#clip0_1907_6456)">
<path d="M23.3753 12.2523C23.3753 11.317 23.2978 10.6345 23.1302 9.92676H12.2324V14.1481H18.6292C18.5003 15.1972 17.8038 16.777 16.2562 17.8386L16.2345 17.98L19.6802 20.5959L19.9189 20.6193C22.1113 18.6349 23.3753 15.7153 23.3753 12.2523" fill="#4285F4"/>
<path d="M12.2323 23.3754C15.3662 23.3754 17.9971 22.3642 19.9188 20.6201L16.2561 17.8394C15.2759 18.5093 13.9604 18.9769 12.2323 18.9769C9.16291 18.9769 6.55778 16.9927 5.62912 14.25L5.493 14.2613L1.91014 16.9787L1.86328 17.1064C3.77198 20.8222 7.69261 23.3754 12.2323 23.3754Z" fill="#34A853"/>
<path d="M5.63087 14.2501C5.38583 13.5423 5.24402 12.7839 5.24402 12.0004C5.24402 11.2167 5.38583 10.4584 5.61797 9.75062L5.61148 9.59989L1.98371 6.83887L1.86502 6.8942C1.07835 8.43616 0.626953 10.1677 0.626953 12.0004C0.626953 13.833 1.07835 15.5645 1.86502 17.1064L5.63087 14.2501" fill="#FBBC05"/>
<path d="M12.2324 5.0233C14.4119 5.0233 15.8821 5.94594 16.7204 6.71696L19.9962 3.5825C17.9844 1.74987 15.3663 0.625 12.2324 0.625C7.69265 0.625 3.77199 3.17804 1.86328 6.89384L5.61625 9.75027C6.5578 7.00763 9.16295 5.0233 12.2324 5.0233" fill="#EB4335"/>
</g>
<defs>
<clipPath id="clip0_1907_6456">
<rect width="24" height="24" fill="white"/>
</clipPath>
</defs>
</svg>
