<svg width="24" height="24" viewBox="0 0 24 24" fill="none" xmlns="http://www.w3.org/2000/svg">
<path d="M3.25 5C3.25 4.27065 3.53973 3.57118 4.05546 3.05546C4.57118 2.53973 5.27065 2.25 6 2.25H16C16.7293 2.25 17.4288 2.53973 17.9445 3.05546C18.4603 3.57118 18.75 4.27065 18.75 5V10.5C18.75 10.6989 18.671 10.8897 18.5303 11.0303C18.3897 11.171 18.1989 11.25 18 11.25C17.8011 11.25 17.6103 11.171 17.4697 11.0303C17.329 10.8897 17.25 10.6989 17.25 10.5V5C17.25 4.31 16.69 3.75 16 3.75H6C5.31 3.75 4.75 4.31 4.75 5V19.382C4.74992 19.4247 4.76076 19.4667 4.78149 19.504C4.80223 19.5413 4.83216 19.5726 4.86845 19.5951C4.90474 19.6175 4.94617 19.6303 4.9888 19.6322C5.03144 19.6342 5.07385 19.6251 5.112 19.606L6.112 19.106C6.40259 18.9607 6.72787 18.8993 7.05143 18.9284C7.37498 18.9575 7.68404 19.0762 7.944 19.271L8.85 19.95C8.89327 19.9825 8.94591 20 9 20C9.05409 20 9.10673 19.9825 9.15 19.95L10.012 19.303C10.2903 19.0945 10.6244 18.9736 10.9718 18.9558C11.3191 18.9379 11.6638 19.024 11.962 19.203L12.636 19.607C12.7215 19.6572 12.7962 19.7238 12.8557 19.803C12.9153 19.8822 12.9586 19.9724 12.9831 20.0685C13.0076 20.1645 13.0128 20.2645 12.9984 20.3625C12.9841 20.4606 12.9504 20.5549 12.8994 20.6398C12.8484 20.7248 12.781 20.7988 12.7012 20.8576C12.6214 20.9164 12.5308 20.9588 12.4345 20.9824C12.3382 21.0059 12.2382 21.0101 12.1403 20.9948C12.0424 20.9794 11.9485 20.9449 11.864 20.893L11.191 20.489C11.1484 20.4633 11.0991 20.4509 11.0494 20.4534C10.9997 20.4559 10.9518 20.4732 10.912 20.503L10.05 21.15C9.74708 21.3772 9.37865 21.5 9 21.5C8.62135 21.5 8.25292 21.3772 7.95 21.15L7.044 20.47C7.00688 20.4424 6.96283 20.4256 6.91675 20.4216C6.87068 20.4175 6.82437 20.4263 6.783 20.447L5.783 20.947C5.5162 21.0805 5.2197 21.1435 4.92167 21.1302C4.62364 21.1168 4.33397 21.0275 4.08017 20.8707C3.82638 20.7139 3.61688 20.4948 3.47158 20.2343C3.32629 19.9737 3.25001 19.6803 3.25 19.382V5Z" fill="white"/>
<path d="M17.5 14.75C16.7707 14.75 16.0712 15.0397 15.5555 15.5555C15.0397 16.0712 14.75 16.7707 14.75 17.5C14.75 18.2293 15.0397 18.9288 15.5555 19.4445C16.0712 19.9603 16.7707 20.25 17.5 20.25C18.2293 20.25 18.9288 19.9603 19.4445 19.4445C19.9603 18.9288 20.25 18.2293 20.25 17.5C20.25 16.7707 19.9603 16.0712 19.4445 15.5555C18.9288 15.0397 18.2293 14.75 17.5 14.75ZM13.25 17.5C13.25 16.9419 13.3599 16.3892 13.5735 15.8736C13.7871 15.358 14.1001 14.8894 14.4948 14.4948C14.8894 14.1001 15.358 13.7871 15.8736 13.5735C16.3892 13.3599 16.9419 13.25 17.5 13.25C18.0581 13.25 18.6108 13.3599 19.1264 13.5735C19.642 13.7871 20.1106 14.1001 20.5052 14.4948C20.8999 14.8894 21.2129 15.358 21.4265 15.8736C21.6401 16.3892 21.75 16.9419 21.75 17.5C21.75 18.6272 21.3022 19.7082 20.5052 20.5052C19.7082 21.3022 18.6272 21.75 17.5 21.75C16.3728 21.75 15.2918 21.3022 14.4948 20.5052C13.6978 19.7082 13.25 18.6272 13.25 17.5ZM19.343 16.095C19.4835 16.2356 19.5623 16.4262 19.5623 16.625C19.5623 16.8238 19.4835 17.0144 19.343 17.155L17.063 19.435L15.657 18.03C15.5833 17.9613 15.5242 17.8785 15.4832 17.7865C15.4422 17.6945 15.4202 17.5952 15.4184 17.4945C15.4166 17.3938 15.4352 17.2938 15.4729 17.2004C15.5106 17.107 15.5667 17.0222 15.638 16.951C15.7092 16.8797 15.794 16.8236 15.8874 16.7859C15.9808 16.7482 16.0808 16.7296 16.1815 16.7314C16.2822 16.7332 16.3815 16.7552 16.4735 16.7962C16.5655 16.8372 16.6483 16.8963 16.717 16.97L17.063 17.314L18.283 16.094C18.4236 15.9535 18.6142 15.8747 18.813 15.8747C19.0118 15.8747 19.2024 15.9545 19.343 16.095ZM6.25 7C6.25 6.80109 6.32902 6.61032 6.46967 6.46967C6.61032 6.32902 6.80109 6.25 7 6.25H13.5C13.6989 6.25 13.8897 6.32902 14.0303 6.46967C14.171 6.61032 14.25 6.80109 14.25 7C14.25 7.19891 14.171 7.38968 14.0303 7.53033C13.8897 7.67098 13.6989 7.75 13.5 7.75H7C6.80109 7.75 6.61032 7.67098 6.46967 7.53033C6.32902 7.38968 6.25 7.19891 6.25 7ZM6.25 10C6.25 9.80109 6.32902 9.61032 6.46967 9.46967C6.61032 9.32902 6.80109 9.25 7 9.25H15C15.1989 9.25 15.3897 9.32902 15.5303 9.46967C15.671 9.61032 15.75 9.80109 15.75 10C15.75 10.1989 15.671 10.3897 15.5303 10.5303C15.3897 10.671 15.1989 10.75 15 10.75H7C6.80109 10.75 6.61032 10.671 6.46967 10.5303C6.32902 10.3897 6.25 10.1989 6.25 10ZM6.25 13C6.25 12.8011 6.32902 12.6103 6.46967 12.4697C6.61032 12.329 6.80109 12.25 7 12.25H10.5C10.6989 12.25 10.8897 12.329 11.0303 12.4697C11.171 12.6103 11.25 12.8011 11.25 13C11.25 13.1989 11.171 13.3897 11.0303 13.5303C10.8897 13.671 10.6989 13.75 10.5 13.75H7C6.80109 13.75 6.61032 13.671 6.46967 13.5303C6.32902 13.3897 6.25 13.1989 6.25 13ZM6.25 16C6.25 15.8011 6.32902 15.6103 6.46967 15.4697C6.61032 15.329 6.80109 15.25 7 15.25H10.5C10.6989 15.25 10.8897 15.329 11.0303 15.4697C11.171 15.6103 11.25 15.8011 11.25 16C11.25 16.1989 11.171 16.3897 11.0303 16.5303C10.8897 16.671 10.6989 16.75 10.5 16.75H7C6.80109 16.75 6.61032 16.671 6.46967 16.5303C6.32902 16.3897 6.25 16.1989 6.25 16Z" fill="white"/>
</svg>
