<svg width="29" height="31" viewBox="0 0 29 31" fill="none" xmlns="http://www.w3.org/2000/svg">
<g clip-path="url(#clip0_8892_8904)">
<path d="M15.3594 0.650391C13.9244 11.5014 12.7612 12.6446 1.71875 14.0548C12.7611 15.4649 13.9244 16.6079 15.3594 27.4591C16.7944 16.6081 17.9576 15.4649 29.0001 14.0548C17.9577 12.6446 16.7944 11.5016 15.3594 0.650391Z" fill="white"/>
<path d="M5.36826 23.1827C4.33003 23.0501 3.77985 22.9319 3.4616 22.6191C3.14335 22.3064 3.02321 21.7657 2.88811 20.7455C2.87885 20.6755 2.81816 20.623 2.74643 20.623C2.6747 20.623 2.614 20.6753 2.60475 20.7455C2.46983 21.7657 2.3495 22.3064 2.03125 22.6191C1.713 22.9319 1.16283 23.0499 0.124595 23.1827C0.0533978 23.1918 0 23.2514 0 23.3219C0 23.3924 0.0532198 23.452 0.124595 23.4611C1.16283 23.5937 1.713 23.7118 2.03125 24.0247C2.3495 24.3376 2.46965 24.8781 2.60475 25.8983C2.614 25.9683 2.6747 26.0208 2.74643 26.0208C2.81816 26.0208 2.87885 25.9685 2.88811 25.8983C3.02303 24.8781 3.14317 24.3374 3.4616 24.0247C3.77985 23.7119 4.33003 23.5939 5.36826 23.4611C5.43946 23.452 5.49286 23.3924 5.49286 23.3219C5.49286 23.2514 5.43964 23.1918 5.36826 23.1827ZM3.2594 23.8262C3.00203 24.0791 2.85767 24.4303 2.74643 24.973C2.635 24.4303 2.49083 24.0791 2.23345 23.8262C1.97608 23.5732 1.61867 23.4314 1.06635 23.3221C1.61867 23.2126 1.97608 23.0709 2.23345 22.818C2.49083 22.5651 2.63518 22.2138 2.74643 21.6711C2.85785 22.2138 3.00203 22.5651 3.2594 22.818C3.51678 23.0709 3.87419 23.2128 4.4265 23.3221C3.87419 23.4316 3.51678 23.5732 3.2594 23.8262Z" fill="white"/>
<path d="M24.9494 20.1484C24.665 22.299 24.4345 22.5256 22.2461 22.805C24.4345 23.0845 24.6652 23.311 24.9494 25.4615C25.2339 23.311 25.4644 23.0843 27.6528 22.805C25.4644 22.5255 25.2337 22.299 24.9494 20.1484Z" fill="white"/>
<path d="M20.503 2.81452C20.7224 1.15428 20.9004 0.979368 22.5899 0.763705C20.9004 0.548041 20.7224 0.373132 20.503 -1.28711C20.2835 0.373132 20.1055 0.548041 18.416 0.763705C20.1055 0.979368 20.2835 1.15428 20.503 2.81452Z" fill="white"/>
<path d="M10.0674 19.8398C9.84797 21.5001 9.66998 21.675 7.98047 21.8907C9.66998 22.1063 9.84797 22.2812 10.0674 23.9415C10.2869 22.2812 10.4649 22.1063 12.1544 21.8907C10.4649 21.675 10.2869 21.5001 10.0674 19.8398Z" fill="white"/>
</g>
<defs>
<clipPath id="clip0_8892_8904">
<rect width="29" height="30.207" fill="white"/>
</clipPath>
</defs>
</svg>
