<svg width="11" height="16" viewBox="0 0 11 16" fill="none" xmlns="http://www.w3.org/2000/svg">
<path d="M5.33974 0C6.0941 0 6.83152 0.223693 7.45875 0.642792C8.08597 1.06189 8.57484 1.65757 8.86352 2.35451C9.1522 3.05145 9.22773 3.81833 9.08056 4.5582C8.93339 5.29806 8.57013 5.97767 8.03672 6.51108C7.50331 7.04449 6.8237 7.40775 6.08384 7.55492C5.34398 7.70209 4.57709 7.62656 3.88015 7.33788C3.18321 7.04919 2.58753 6.56033 2.16843 5.93311C1.74933 5.30588 1.52564 4.56846 1.52564 3.8141L1.52946 3.64857C1.57211 2.66663 1.99219 1.73906 2.70208 1.0593C3.41197 0.379535 4.35688 5.67863e-05 5.33974 0ZM6.86539 9.15385C7.87695 9.15385 8.84708 9.55569 9.56236 10.271C10.2776 10.9863 10.6795 11.9564 10.6795 12.968V13.7308C10.6795 14.1354 10.5188 14.5234 10.2326 14.8096C9.94652 15.0957 9.55847 15.2564 9.15385 15.2564H1.52564C1.12102 15.2564 0.732963 15.0957 0.44685 14.8096C0.160737 14.5234 0 14.1354 0 13.7308V12.968C0 11.9564 0.401842 10.9863 1.11712 10.271C1.83241 9.55569 2.80254 9.15385 3.8141 9.15385H6.86539Z" fill="white"/>
</svg>
