<svg width="18" height="20" viewBox="0 0 18 20" fill="none" xmlns="http://www.w3.org/2000/svg">
<path fill-rule="evenodd" clip-rule="evenodd" d="M0 5C0 3.67392 0.526784 2.40215 1.46447 1.46447C2.40215 0.526784 3.67392 0 5 0H10C10.2652 0 10.5196 0.105357 10.7071 0.292893C10.8946 0.48043 11 0.734784 11 1C11 1.26522 10.8946 1.51957 10.7071 1.70711C10.5196 1.89464 10.2652 2 10 2H5C4.20435 2 3.44129 2.31607 2.87868 2.87868C2.31607 3.44129 2 4.20435 2 5V15C2 15.7956 2.31607 16.5587 2.87868 17.1213C3.44129 17.6839 4.20435 18 5 18H10C10.2652 18 10.5196 18.1054 10.7071 18.2929C10.8946 18.4804 11 18.7348 11 19C11 19.2652 10.8946 19.5196 10.7071 19.7071C10.5196 19.8946 10.2652 20 10 20H5C3.67392 20 2.40215 19.4732 1.46447 18.5355C0.526784 17.5979 0 16.3261 0 15V5Z" fill="#FF4242"/>
<path fill-rule="evenodd" clip-rule="evenodd" d="M11.47 5.31653C11.5598 5.22063 11.6676 5.14335 11.7873 5.08913C11.907 5.03491 12.0362 5.0048 12.1675 5.00053C12.2988 4.99626 12.4297 5.0179 12.5526 5.06423C12.6755 5.11056 12.7882 5.18066 12.884 5.27053L17.684 9.77053C17.7839 9.86407 17.8636 9.97713 17.918 10.1027C17.9725 10.2283 18.0006 10.3637 18.0006 10.5005C18.0006 10.6374 17.9725 10.7728 17.918 10.8984C17.8636 11.0239 17.7839 11.137 17.684 11.2305L12.884 15.7305C12.7881 15.8204 12.6755 15.8904 12.5526 15.9367C12.4296 15.983 12.2988 16.0047 12.1675 16.0004C12.0362 15.9961 11.907 15.966 11.7873 15.9118C11.6677 15.8576 11.5598 15.7804 11.47 15.6845C11.3802 15.5887 11.3101 15.4761 11.2638 15.3531C11.2175 15.2302 11.1959 15.0993 11.2002 14.968C11.2044 14.8367 11.2345 14.7075 11.2887 14.5879C11.3429 14.4682 11.4201 14.3604 11.516 14.2705L14.471 11.5005H5C4.73478 11.5005 4.48043 11.3952 4.29289 11.2076C4.10536 11.0201 4 10.7658 4 10.5005C4 10.2353 4.10536 9.98096 4.29289 9.79343C4.48043 9.60589 4.73478 9.50053 5 9.50053H14.471L11.516 6.73053C11.4201 6.64074 11.3428 6.53292 11.2886 6.41324C11.2344 6.29357 11.2043 6.16438 11.2 6.03307C11.1957 5.90175 11.2174 5.77088 11.2637 5.64793C11.31 5.52499 11.3801 5.41238 11.47 5.31653Z" fill="#FF4242"/>
</svg>
