<svg width="23" height="25" viewBox="0 0 23 25" fill="none" xmlns="http://www.w3.org/2000/svg">
<path d="M11.7575 23.6229L11.7698 23.6207C11.7794 23.6222 11.7857 23.6288 11.7886 23.6407L11.8075 24.1151L11.8031 24.134L11.7898 24.1518L11.6742 24.234L11.6609 24.2385L11.6442 24.234L11.5286 24.1518L11.5175 24.1374L11.512 24.1151L11.5309 23.6396L11.5353 23.6285C11.5412 23.6211 11.5501 23.6192 11.562 23.6229L11.6409 23.6618L11.6564 23.6662L11.6786 23.6618L11.7575 23.6229Z" fill="white"/>
<path d="M12.0498 23.4974L12.0642 23.4951C12.0753 23.4981 12.0827 23.5062 12.0864 23.5196L12.1242 24.2018L12.1198 24.2174C12.1123 24.227 12.1016 24.23 12.0875 24.2262L11.8642 24.1229L11.8553 24.1151L11.8498 24.1018L11.8298 23.624L11.8331 23.6118L11.8442 23.6007L12.0498 23.4974Z" fill="white"/>
<path d="M11.2534 23.4947C11.259 23.4934 11.2649 23.4944 11.2698 23.4974L11.4742 23.5996L11.4853 23.6107L11.4886 23.624L11.4698 24.1018L11.4653 24.114L11.4542 24.1229L11.2309 24.2262L11.2142 24.2285C11.2023 24.224 11.1961 24.2151 11.1953 24.2018L11.2331 23.5196L11.2398 23.504C11.2429 23.4993 11.2478 23.4959 11.2534 23.4947Z" fill="white"/>
<path d="M11.1111 0C17.2478 0 22.2222 4.97444 22.2222 11.1111C22.2222 17.2478 17.2478 22.2222 11.1111 22.2222C4.97444 22.2222 0 17.2478 0 11.1111C0 4.97444 4.97444 0 11.1111 0ZM11.1111 2.22222C8.75363 2.22222 6.49271 3.15873 4.82572 4.82572C3.15873 6.49271 2.22222 8.75363 2.22222 11.1111C2.22222 13.4686 3.15873 15.7295 4.82572 17.3965C6.49271 19.0635 8.75363 20 11.1111 20C13.4686 20 15.7295 19.0635 17.3965 17.3965C19.0635 15.7295 20 13.4686 20 11.1111C20 8.75363 19.0635 6.49271 17.3965 4.82572C15.7295 3.15873 13.4686 2.22222 11.1111 2.22222ZM11.1111 15.5556C11.4058 15.5556 11.6884 15.6726 11.8968 15.881C12.1052 16.0894 12.2222 16.372 12.2222 16.6667C12.2222 16.9614 12.1052 17.244 11.8968 17.4523C11.6884 17.6607 11.4058 17.7778 11.1111 17.7778C10.8164 17.7778 10.5338 17.6607 10.3254 17.4523C10.1171 17.244 10 16.9614 10 16.6667C10 16.372 10.1171 16.0894 10.3254 15.881C10.5338 15.6726 10.8164 15.5556 11.1111 15.5556ZM11.1111 5C12.047 5.00003 12.9536 5.32595 13.6753 5.92178C14.397 6.51761 14.8887 7.34615 15.0659 8.26509C15.2431 9.18402 15.0948 10.136 14.6464 10.9575C14.1981 11.7789 13.4776 12.4186 12.6089 12.7667C12.4802 12.814 12.3642 12.8904 12.27 12.99C12.2211 13.0456 12.2133 13.1167 12.2144 13.19L12.2222 13.3333C12.2219 13.6165 12.1135 13.8889 11.9191 14.0949C11.7246 14.3008 11.4589 14.4247 11.1762 14.4413C10.8935 14.4579 10.6151 14.3659 10.398 14.1841C10.1808 14.0024 10.0412 13.7445 10.0078 13.4633L10 13.3333V13.0556C10 11.7744 11.0333 11.0056 11.7822 10.7044C12.087 10.5827 12.3529 10.3803 12.5513 10.1189C12.7497 9.85745 12.8732 9.54692 12.9084 9.22062C12.9437 8.89432 12.8894 8.56459 12.7514 8.26682C12.6133 7.96906 12.3968 7.71452 12.125 7.53053C11.8533 7.34654 11.5365 7.24006 11.2088 7.22252C10.8811 7.20498 10.5547 7.27704 10.2649 7.43097C9.97502 7.58489 9.73256 7.81487 9.56355 8.0962C9.39453 8.37753 9.30534 8.69958 9.30556 9.02778C9.30556 9.32246 9.18849 9.60508 8.98012 9.81345C8.77174 10.0218 8.48913 10.1389 8.19444 10.1389C7.89976 10.1389 7.61714 10.0218 7.40877 9.81345C7.2004 9.60508 7.08333 9.32246 7.08333 9.02778C7.08333 7.95954 7.50769 6.93506 8.26304 6.17971C9.0184 5.42435 10.0429 5 11.1111 5Z" fill="white"/>
</svg>
