<svg width="28" height="29" viewBox="0 0 28 29" fill="none" xmlns="http://www.w3.org/2000/svg">
<g clip-path="url(#clip0_8892_8913)">
<path d="M13.1696 23.2527C14.5551 13.15 15.6781 12.0856 26.3398 10.7727C15.6783 9.45988 14.5551 8.39567 13.1696 -1.70718C11.7841 8.39551 10.661 9.45987 -0.000723562 10.7727C10.6608 12.0856 11.7841 13.1498 13.1696 23.2527Z" fill="white"/>
<path d="M3.9094 5.10033C4.18402 3.09813 4.40658 2.88708 6.51953 2.62701C4.40658 2.36678 4.18385 2.1559 3.9094 0.153694C3.63477 2.1559 3.41222 2.36695 1.29926 2.62701C3.41222 2.88724 3.63495 3.09813 3.9094 5.10033Z" fill="white"/>
<path d="M8.20375 21.2386C7.99185 22.7843 7.82 22.9472 6.18875 23.148C7.82 23.3488 7.99185 23.5116 8.20375 25.0574C8.41565 23.5116 8.5875 23.3488 10.2188 23.148C8.5875 22.9472 8.41565 22.7843 8.20375 21.2386Z" fill="white"/>
<path d="M18.2799 5.38744C18.4918 3.8417 18.6637 3.67885 20.2949 3.47806C18.6637 3.27727 18.4918 3.11442 18.2799 1.56868C18.068 3.11442 17.8962 3.27727 16.2649 3.47806C17.8962 3.67885 18.068 3.8417 18.2799 5.38744Z" fill="white"/>
</g>
<defs>
<clipPath id="clip0_8892_8913">
<rect width="28" height="28.1238" fill="white" transform="translate(28 28.1238) rotate(-180)"/>
</clipPath>
</defs>
</svg>
