<svg width="38" height="38" viewBox="0 0 38 38" fill="none" xmlns="http://www.w3.org/2000/svg">
<path d="M9.5 12.666H15.8333" stroke="#00C264" stroke-width="2.375" stroke-linecap="round" stroke-linejoin="round"/>
<path d="M32.9856 14.25H28.8658C26.0395 14.25 23.75 16.3764 23.75 19C23.75 21.6236 26.0411 23.75 28.8642 23.75H32.9856C33.1186 23.75 33.1835 23.75 33.2389 23.7468C34.0939 23.6946 34.7747 23.0628 34.8302 22.2696C34.8333 22.2189 34.8333 22.1572 34.8333 22.0352V15.9648C34.8333 15.8428 34.8333 15.7811 34.8302 15.7304C34.7732 14.9372 34.0939 14.3054 33.2389 14.2532C33.1851 14.25 33.1186 14.25 32.9856 14.25Z" stroke="#00C264" stroke-width="2.375"/>
<path d="M33.1939 14.2507C33.0704 11.2867 32.6746 9.46898 31.3937 8.18965C29.5396 6.33398 26.5534 6.33398 20.5827 6.33398H15.8327C9.86193 6.33398 6.87577 6.33398 5.02168 8.18965C3.1676 10.0453 3.16602 13.0299 3.16602 19.0007C3.16602 24.9714 3.16602 27.9576 5.02168 29.8117C6.87735 31.6657 9.86193 31.6673 15.8327 31.6673H20.5827C26.5534 31.6673 29.5396 31.6673 31.3937 29.8117C32.6746 28.5323 33.072 26.7147 33.1939 23.7507" stroke="#00C264" stroke-width="2.375"/>
<path d="M28.4844 19H28.5002" stroke="#00C264" stroke-width="3.16667" stroke-linecap="round" stroke-linejoin="round"/>
</svg>
