<svg width="46" height="40" viewBox="0 0 46 40" fill="none" xmlns="http://www.w3.org/2000/svg">
<circle cx="2.88026" cy="2.88026" r="2.88026" transform="matrix(1 0 0 -1 0 5.75977)" fill="#D9D9D9"/>
<circle cx="2.88026" cy="2.88026" r="2.88026" transform="matrix(1 0 0 -1 19.793 5.75977)" fill="#D9D9D9"/>
<circle cx="2.88026" cy="2.88026" r="2.88026" transform="matrix(1 0 0 -1 39.5859 5.75977)" fill="#D9D9D9"/>
<circle cx="2.88026" cy="2.88026" r="2.88026" transform="matrix(1 0 0 -1 0 22.7461)" fill="#D9D9D9"/>
<circle cx="2.88026" cy="2.88026" r="2.88026" transform="matrix(1 0 0 -1 19.793 22.7461)" fill="#D9D9D9"/>
<circle cx="2.88026" cy="2.88026" r="2.88026" transform="matrix(1 0 0 -1 39.5859 22.7461)" fill="#D9D9D9"/>
<circle cx="2.88026" cy="2.88026" r="2.88026" transform="matrix(1 0 0 -1 0 39.7324)" fill="#D9D9D9"/>
<circle cx="2.88026" cy="2.88026" r="2.88026" transform="matrix(1 0 0 -1 19.793 39.7324)" fill="#D9D9D9"/>
<circle cx="2.88026" cy="2.88026" r="2.88026" transform="matrix(1 0 0 -1 39.5859 39.7324)" fill="#D9D9D9"/>
</svg>
